<svg version="1.1" id="Layer_1" xmlns="http://www.w3.org/2000/svg" xmlns:xlink="http://www.w3.org/1999/xlink" x="0px" y="0px" width="595.276px" height="595.276px" viewBox="0 0 595.276 595.276" enable-background="new 0 0 595.276 595.276" xml:space="preserve">
<path id="color_x5F_6" fill-rule="evenodd" clip-rule="evenodd" fill="#1ACEBD" d="M443.487,294.982l-0.125-0.19h19.869
	l7.249-14.688c0,0-0.684-0.314-1.529-0.7c-0.774-0.356-1.35-1.038-1.57-1.861s-0.061-1.702,0.434-2.395
	c3.296-4.623,9.494-13.316,9.494-13.316s0,0-0.001,0c-0.801,0.501-1.835,0.423-2.552-0.193c-0.716-0.615-0.95-1.626-0.575-2.493
	c4.008-9.329,11.345-26.341,14.254-32.618c0.27-0.582,0.77-0.942,1.313-0.942c0.542,0,1.043,0.36,1.312,0.942
	c0,0,10.368,22.636,14.722,32.142c0.362,0.79,0.249,1.716-0.291,2.396c-0.54,0.68-1.416,1-2.267,0.828
	c-0.191-0.039-0.304-0.062-0.304-0.062s6.324,9.592,9.194,13.946c0.363,0.548,0.483,1.221,0.337,1.863
	c-0.147,0.641-0.55,1.194-1.116,1.529c-0.825,0.49-1.571,0.934-1.571,0.934l6.819,14.003h1.87v0.685h19.221l-3.826-7.26
	l11.592,0.084l-40.28,90.361l-161.497-0.025l-0.302-3.41l16.144-0.263h16.123c4.628-3.617,6.24-7.231,0-10.847h-1.063
	c0.69-3.43,1.172-6.913,1.432-10.454L376,352.98c0.433-5.888,0.256-11.938-0.594-18.166c-0.004,0.002-0.008,0.004-0.013,0.006
	c-0.526-3.835-1.308-7.737-2.361-11.71c-0.759-2.831-3.324-4.798-6.256-4.799h-0.63l-14.232-22.328h36.606l0.003-0.077
	c0.023-0.546,0.203-1.081,0.527-1.536c3.86-5.413,11.939-16.744,11.939-16.744l0,0c-0.972,0.606-2.225,0.51-3.094-0.236
	c-0.868-0.747-1.151-1.972-0.697-3.023c4.859-11.312,13.755-31.937,17.281-39.548c0.327-0.706,0.935-1.142,1.592-1.142
	c0.658,0,1.265,0.435,1.592,1.142c0,0,13.242,28.912,18.252,39.85c0.362,0.789,0.25,1.715-0.291,2.396
	c-0.539,0.68-1.416,1-2.267,0.827c-0.761-0.154-1.312-0.266-1.312-0.266L443.487,294.982z M280.108,374.543
	c0,0-0.179,1.513-0.186,1.591c-0.003,0.033-0.115,1.797-0.115,1.797v0.012l-99.551-0.016c0,0-0.116-1.817-0.122-1.878
	c-0.002-0.026-0.178-1.506-0.178-1.506H280.108z M99.142,374.543h17.561l-0.182,1.547c-0.004,0.044-0.104,1.454-0.117,1.827
	l-33.92-0.006l3.35-3.593h13.308C99.142,374.318,99.142,374.543,99.142,374.543z"></path>
    <path id="color_x5F_5" fill-rule="evenodd" clip-rule="evenodd" fill="#FFD2BB" d="M313.52,317.911l1.075,1.18
	c0,0,8.196-4.918,8.21-4.913l3.752-3.283c0,0,0.959-0.498,1.744,0.747c0.784,1.244-1.026,3.484-1.026,3.484s2.392,0.592,0.791,1.383
	c-1.374,0.678-3.101,0.879-3.564,0.923l-10.078,6.928l-0.808-0.037l-3.114-3.42L313.52,317.911z M304.717,305.904l-0.122-0.24
	c-2.236-2.38,0.254-4.401,1.341-3.474c0.313,0.267,0.739-2.346,0.739-2.346s3.142,0.773,5.373,0.683
	c1.294-0.053,2.112-0.291,2.628-0.601l0.113,1.329c0.308,3.632,0.054,7.217-5.544,7.692l-0.487,1.952l-0.964-0.03
	c-0.918-0.831-2.309-1.881-3.478-1.872c0,0-0.051,0.033-0.141,0.108L304.717,305.904z"></path>
    <path id="color_x5F_4" fill-rule="evenodd" clip-rule="evenodd" fill="#903749" d="M116.704,374.543H99.142v-0.225H82.949
	v-0.038h15.642c1.811-3.004,3.34-6.103,0-10.847H82.949v-21.922c0-15.272,3.421-30.351,10.013-44.127
	c3.318-6.936,6.18-12.918,6.18-12.918h5.26c0,0,0.347-1.573,0.811-3.686c1.402-6.371,7.047-10.91,13.57-10.91h207.504
	c6.993,0,13.295,4.222,15.955,10.689c0.184,0.446,0.292,0.709,0.292,0.709l23.611,37.043h0.63c2.939,0.006,5.498,1.973,6.256,4.799
	c1.053,3.973,1.835,7.875,2.361,11.71c-3.465,1.57-5.87,4.991-5.87,8.954c0,4.189,2.688,7.773,6.475,9.205
	c-0.26,3.539-0.741,7.018-1.432,10.454h-15.061c-2.636,3.622-2.634,7.234,0,10.847l-16.144,0.263
	c-2.206-15.486-15.535-27.409-31.626-27.409c-16.087,0-29.413,11.917-31.627,27.409h-100.15
	c-2.206-15.486-15.535-27.409-31.627-27.409C132.243,347.134,118.917,359.05,116.704,374.543z M104.902,353.214h-9.624v5.694h9.624
	V353.214z M355.322,341.377h-5.113v3.603h5.113V341.377z M268.623,331.449H254.6v4.72h14.023L268.623,331.449L268.623,331.449z
	 M298.771,331.449h-14.024v4.72h14.024V331.449z M310.503,320.903l3.114,3.42l0.808,0.037l6.329-4.351h16.81
	c0.221,0.853,0.666,1.639,1.299,2.272c0.934,0.935,2.201,1.459,3.523,1.459c4.402,0,10.126,0,10.126,0v-9.592h-4.199v-10.406
	c0-3.58-1.422-7.013-3.953-9.545c-2.532-2.531-5.965-3.953-9.545-3.953c-13.142,0-32.241,0-40.048,0
	c-0.935,0-1.832,0.372-2.493,1.033c-0.66,0.661-1.032,1.557-1.032,2.492c0,5.954,0,17.886,0,23.368c0,0.762,0.303,1.493,0.841,2.032
	c0.539,0.539,1.27,0.842,2.033,0.842h14.391l-3.932-3.968c0.276-2.414,1.558-3.919,4.218-4.18l5.368,5.417L310.503,320.903z
	 M182.043,296.206c0-0.935-0.372-1.831-1.033-2.492c-0.66-0.661-1.557-1.033-2.492-1.033c-9.945,0-38.617,0-55.809,0
	c-7.455,0-13.499,6.044-13.499,13.499c0,3.907,0,7.831,0,10.496c0,0.884,0.352,1.732,0.977,2.357
	c0.624,0.625,1.472,0.976,2.356,0.976h66.626c1.587,0,2.874-1.286,2.874-2.873C182.043,312.095,182.043,301.674,182.043,296.206z
	 M269.008,296.206c0-0.935-0.372-1.831-1.032-2.492c-0.661-0.661-1.558-1.033-2.493-1.033c-11.502,0-48.05,0-62.91,0
	c-1.69,0-3.312,0.672-4.507,1.868c-1.196,1.196-1.867,2.817-1.867,4.508c0,5.509,0,13.255,0,17.62c0,1.841,1.492,3.333,3.332,3.333
	c12.309,0,55.089,0,66.604,0c0.762,0,1.493-0.303,2.033-0.842c0.538-0.538,0.841-1.269,0.841-2.032L269.008,296.206L269.008,296.206
	z M304.595,305.664c-2.236-2.38,0.254-4.401,1.341-3.474c0.313,0.267,0.739-2.346,0.739-2.346s3.142,0.773,5.373,0.683
	c4.061-0.164,3.435-2.162,3.493-2.458c0.594-3.044-4.122-6.64-10.83-4.147c-4.286,1.593-4.379,7.26-3.49,9.637
	C301.648,304.699,304.595,305.664,304.595,305.664z"></path>
    <path id="color_x5F_3" fill-rule="evenodd" clip-rule="evenodd" fill="#903749" d="M489.209,424.067H49.112v-10.505h0.111
	l33.366-35.563h33.812c-0.012,0.359-0.019,0.72-0.019,1.082c0,2.408,10.943,2.458,10.943,0l0.027-1.08
	c0.563-11.091,9.747-19.925,20.978-19.925c11.593,0,21.004,9.412,21.004,21.004c0.001,2.458,10.943,2.408,10.943,0
	c0-0.362-0.006-0.723-0.018-1.082h99.546c-0.012,0.359-0.018,0.72-0.018,1.082c0,2.408,10.943,2.458,10.943,0v-0.068l0,0l0,0v-0.002
	c0.038-11.561,9.436-20.935,21.004-20.935c11.57,0,20.967,9.374,21.005,20.935v0.07c0,2.458,10.942,2.408,10.942,0
	c0-0.362-0.006-0.723-0.018-1.082H505.15l-15.882,35.626h-0.061v10.443H489.209z M261.889,388.346H223.9l-5.03,4.433h37.722
	L261.889,388.346z M450.6,388.346h-37.989l-5.029,4.433h37.721L450.6,388.346z M129.476,388.346h-2.78l-5.029,4.433h10.742
	C131.256,391.439,130.269,389.953,129.476,388.346z M353.396,388.346h-22.807c-0.793,1.607-1.78,3.093-2.933,4.433H348.1
	L353.396,388.346z M311.496,372.049c3.749,0,6.793,3.044,6.793,6.794c0,3.749-3.043,6.793-6.793,6.793
	c-3.749,0-6.794-3.043-6.794-6.793C304.702,375.093,307.746,372.049,311.496,372.049z M148.091,372.049
	c3.749,0,6.794,3.044,6.794,6.794c0,3.749-3.044,6.793-6.794,6.793s-6.794-3.043-6.794-6.793
	C141.297,375.093,144.341,372.049,148.091,372.049z M352.512,314.148v9.592c0,0-5.724,0-10.126,0c-1.321,0-2.589-0.524-3.523-1.459
	c-0.935-0.934-1.459-2.201-1.459-3.523c0-0.001,0-0.002,0-0.002c0-1.223,0.485-2.395,1.349-3.259
	c0.862-0.862,2.031-1.347,3.259-1.349L352.512,314.148L352.512,314.148z M174.709,308.173c2.053,3.107,4.908,7.819,5.65,11.025
	c-0.689,0.509-1.542,0.811-2.465,0.811h-13.391c0.377-3.172,3.56-8.455,5.796-11.836H174.709z M258.752,308.173
	c2.053,3.107,4.908,7.819,5.65,11.025c-0.689,0.509-1.542,0.811-2.465,0.811h-13.391c0.377-3.172,3.56-8.455,5.795-11.836H258.752z
	 M129.393,308.173c2.236,3.381,5.419,8.663,5.796,11.836h-16.001c0.377-3.172,3.56-8.455,5.795-11.836H129.393z M213.436,308.173
	c2.236,3.381,5.419,8.663,5.796,11.836h-16.001c0.377-3.172,3.56-8.455,5.795-11.836H213.436z M258.361,304.882h-3.63
	c-2.186-3.256-5.634-8.813-6.156-12.201h12.42c1.238,0,2.371,0.441,3.253,1.175C263.263,297.246,260.315,301.973,258.361,304.882z
	 M174.319,304.882h-3.63c-2.186-3.256-5.634-8.813-6.156-12.201h12.421c1.237,0,2.37,0.441,3.252,1.175
	C179.22,297.246,176.273,301.973,174.319,304.882z M212.931,304.882h-3.321c-1.279-2.753-3.069-8.14-4.434-12.198
	c0.076-0.002,0.152-0.003,0.227-0.003h12.64C216.679,296.765,214.466,302.044,212.931,304.882z M129.004,304.882h-3.607
	c-1.85-2.867-4.737-7.813-5.95-11.122c2.667-1.37,5.039-1.119,9.253-1.079c6.459,0.061,6.459,0,6.459,0
	C134.638,296.066,131.196,301.617,129.004,304.882z M388.52,295.983h-36.606l-9.38-14.715c0,0-0.108-0.263-0.292-0.709
	c-2.228-5.416-7.009-9.258-12.614-10.362v-0.629h30.677l0,0c0-15.036-12.188-27.223-27.223-27.223H317.23l24.217-44.691l10.47-7.235
	l5.089,9.606l6.14-10.144l7.539,12.46l4.554-10.29l18.986,35.037l30.798-58.673l13.089-9.3l6.361,12.347l7.676-13.037l9.426,16.014
	l5.693-13.225l70.407,133.578h-20.786c-0.04-0.122-0.089-0.241-0.146-0.359c-2.641-5.425-6.977-14.33-6.977-14.33
	s0.746-0.443,1.571-0.934c0.565-0.336,0.969-0.888,1.116-1.529s0.026-1.314-0.337-1.863c-2.87-4.354-9.194-13.946-9.194-13.946
	s0.113,0.023,0.304,0.062c0.851,0.172,1.727-0.148,2.267-0.828c0.539-0.68,0.652-1.606,0.291-2.396
	c-4.354-9.505-14.722-32.142-14.722-32.142c-0.27-0.582-0.77-0.942-1.312-0.942c-0.543,0-1.044,0.36-1.313,0.942
	c-2.908,6.277-10.246,23.29-14.254,32.618c-0.375,0.867-0.141,1.878,0.575,2.493c0.717,0.616,1.751,0.694,2.552,0.193
	c0.001,0,0.001,0,0.001,0s-6.198,8.692-9.494,13.316c-0.495,0.693-0.654,1.572-0.434,2.395s0.796,1.505,1.57,1.861
	c0.845,0.387,1.529,0.7,1.529,0.7l-7.249,14.688h-19.869l-11.317-17.166c0,0,0.551,0.112,1.312,0.266
	c0.851,0.173,1.728-0.147,2.267-0.827c0.54-0.681,0.652-1.607,0.291-2.396c-5.01-10.938-18.252-39.85-18.252-39.85
	c-0.327-0.706-0.934-1.142-1.592-1.142c-0.657,0-1.265,0.435-1.592,1.142c-1.599,3.451-17.281,39.548-17.281,39.548
	c-0.453,1.052-0.171,2.276,0.697,3.023c0.489,0.419,1.1,0.633,1.713,0.632l0.102-0.002c0.443-0.018,0.885-0.149,1.279-0.395l0,0
	L389.05,294.37c-0.095,0.134-0.452,1.322-0.524,1.475l-0.002,0.03L388.52,295.983z"></path>
    <path id="color_x5F_2" fill-rule="evenodd" clip-rule="evenodd" fill="#FBC02D" d="M132.41,392.778h-10.742l5.029-4.433h2.78
	C130.265,389.948,131.253,391.435,132.41,392.778z M256.593,392.778h-37.722l5.03-4.433h37.989L256.593,392.778z M445.303,392.778
	h-37.721l5.029-4.433H450.6L445.303,392.778z M348.099,392.778h-20.444c1.155-1.341,2.143-2.83,2.933-4.433h22.807L348.099,392.778z
	 M311.496,372.049c3.749,0,6.793,3.044,6.793,6.794c0,3.749-3.043,6.793-6.793,6.793c-3.749,0-6.794-3.043-6.794-6.793
	C304.702,375.093,307.746,372.049,311.496,372.049z M148.091,372.049c3.749,0,6.794,3.044,6.794,6.794
	c0,3.749-3.044,6.793-6.794,6.793s-6.794-3.043-6.794-6.793C141.297,375.093,144.341,372.049,148.091,372.049z M290.73,379.081
	c0,2.458-10.943,2.408-10.943,0c0-17.632,14.316-31.947,31.947-31.947c17.633,0,31.947,14.316,31.947,31.947
	c0,2.408-10.942,2.458-10.942,0c0-11.593-9.413-21.004-21.005-21.004S290.73,367.488,290.73,379.081z M127.325,379.081
	c0,2.458-10.943,2.408-10.943,0c0-17.632,14.316-31.947,31.948-31.947s31.947,14.316,31.947,31.947c0,2.408-10.943,2.458-10.943,0
	c0-11.593-9.412-21.004-21.004-21.004S127.325,367.488,127.325,379.081z M98.591,363.433c3.338,4.744,1.812,7.841,0,10.847H77.526
	c-2.918-4.386-2.217-7.815,0-10.847L98.591,363.433L98.591,363.433z M375.629,363.433c6.24,3.616,4.628,7.23,0,10.847h-16.123
	c-2.635-3.615-2.636-7.229,0-10.847L375.629,363.433L375.629,363.433z M95.278,353.214h9.624v5.694h-9.624V353.214z
	 M375.406,334.814c0.85,6.228,1.028,12.278,0.594,18.166c-3.788-1.432-6.477-5.016-6.477-9.206
	C369.523,339.806,371.934,336.381,375.406,334.814z M350.21,341.377h5.113v3.603h-5.113V341.377z M254.6,331.449h14.023v4.72H254.6
	V331.449z M284.747,331.449h14.024v4.72h-14.024V331.449z M313.52,317.911l0.639-0.633l-5.368-5.417l0.454-2.913
	c5.598-0.474,5.852-4.06,5.544-7.692l-0.113-1.329l0.008-0.005c1.095-0.663,0.818-1.651,0.857-1.852
	c0.594-3.044-4.122-6.64-10.83-4.147c-4.286,1.593-4.379,7.26-3.49,9.637c0.313,0.836,3.495,2.344,3.495,2.344l-0.541,3.201
	c0.09-0.075,0.141-0.108,0.141-0.108c1.932-0.014,4.475,2.864,4.475,2.864c-2.66,0.261-3.942,1.766-4.218,4.18l3.932,3.968h-14.391
	c-0.762,0-1.493-0.303-2.033-0.842c-0.538-0.538-0.841-1.269-0.841-2.032c0-5.481,0-17.414,0-23.368
	c0-0.935,0.372-1.831,1.032-2.492c0.661-0.661,1.558-1.033,2.493-1.033c7.807,0,26.906,0,40.048,0c3.581,0,7.013,1.422,9.545,3.953
	c2.531,2.532,3.953,5.966,3.953,9.545v10.406h-6.3c-1.133,0-2.222,0.417-3.064,1.166c-0.066,0.059-0.131,0.121-0.195,0.184
	c-0.506,0.506-0.882,1.119-1.108,1.784l-0.007,0.022c-0.154,0.464-0.235,0.955-0.235,1.453c0,0,0,0.001,0,0.002
	c0,0.425,0.054,0.846,0.16,1.25h-16.81l3.748-2.577c0.462-0.044,2.189-0.245,3.564-0.923c1.601-0.791-0.791-1.383-0.791-1.383
	s1.81-2.239,1.026-3.484c-0.785-1.246-1.744-0.747-1.744-0.747l-3.752,3.283c-0.001,0-0.229,0.134-0.344,0.202
	c-0.388,0.23-7.866,4.711-7.866,4.711L313.52,317.911z M260.996,292.681h4.488c0.935,0,1.832,0.372,2.493,1.033
	c0.66,0.661,1.032,1.557,1.032,2.492v20.93c0,0.762-0.303,1.493-0.841,2.032c-0.539,0.539-1.27,0.842-2.033,0.842h-4.198
	c0.923,0,1.776-0.302,2.465-0.811c-0.742-3.205-3.597-7.917-5.65-11.025h-4.411c-2.235,3.382-5.418,8.663-5.795,11.836h-29.314
	c-0.377-3.172-3.56-8.454-5.796-11.836h-4.41c-2.235,3.382-5.418,8.663-5.795,11.836h-3.701c-1.84,0-3.332-1.492-3.332-3.333
	c0-4.365,0-12.11,0-17.62c0-1.691,0.671-3.312,1.867-4.508c1.196-1.196,2.818-1.868,4.507-1.868c0,0,2.679,0.001,2.603,0.003
	c1.364,4.058,3.154,9.445,4.434,12.198h3.321c1.532-2.831,3.747-8.114,5.112-12.201h30.534c0.521,3.388,3.968,8.945,6.156,12.201
	h3.63c1.95-2.902,4.9-7.634,5.888-11.027C263.367,293.123,262.234,292.681,260.996,292.681z M124.984,308.173
	c-2.235,3.382-5.418,8.663-5.795,11.836h-6.645c-0.884,0-1.732-0.351-2.356-0.976c-0.625-0.625-0.977-1.473-0.977-2.357
	c0-2.665,0-6.589,0-10.496c0-7.455,6.044-13.499,13.499-13.499h0.944c-1.521,0.094-2.824,0.369-4.206,1.079
	c1.213,3.309,4.1,8.255,5.95,11.122h3.607c2.187-3.256,5.634-8.814,6.156-12.201h29.374c0.521,3.388,3.969,8.945,6.156,12.201h3.63
	c1.95-2.902,4.9-7.634,5.888-11.027c-0.809-0.673-1.831-1.1-2.949-1.166v-0.009h1.261c0.935,0,1.832,0.372,2.492,1.033
	c0.661,0.661,1.033,1.557,1.033,2.492c0,5.468,0,15.889,0,20.93c0,1.587-1.286,2.873-2.874,2.873c0,0,0.5-0.302,1.19-0.811
	c-0.742-3.205-3.596-7.917-5.65-11.025h-4.41c-2.236,3.382-5.419,8.663-5.796,11.836h-29.314c-0.377-3.172-3.56-8.454-5.796-11.836
	h-4.412V308.173z M360.305,269.567H112.202c0,0,0-2.203,0-5.358c0-5.799,2.304-11.361,6.405-15.461
	c4.1-4.101,9.662-6.404,15.461-6.404c45.326,0,149.427,0,199.014,0C348.117,242.344,360.305,254.532,360.305,269.567
	L360.305,269.567z M341.447,197.654l14.833-27.373c0.7-1.292,2.078-2.101,3.581-2.101c1.502,0,2.881,0.809,3.582,2.101l11.797,21.77
	l-4.554,10.29l-7.539-12.46l-6.14,10.144l-5.089-9.606L341.447,197.654z M179.734,195.784c-28.797,0.187-67.89,0.363-67.89,0.363
	c0-11.415,9.268-20.683,20.683-20.683c2.176,0,4.274,0.337,6.245,0.962c3.825-9.455,13.098-16.132,23.919-16.132
	c10.281,0,19.165,6.029,23.307,14.74c1.022-0.155,2.067-0.236,3.132-0.236c5.603,0,10.69,2.233,14.416,5.858
	c1.951-0.847,4.103-1.317,6.364-1.317c6.383,0,11.899,3.743,14.469,9.152c0.634-0.097,1.283-0.147,1.945-0.147
	c7.086,0,12.84,5.754,12.84,12.84c0,0.14-60.821,0.413-60.821,0.413C178.344,199.506,178.845,197.53,179.734,195.784z
	 M315.405,178.27c0,0.119-51.75,0.353-51.75,0.353c0-6.031,4.896-10.926,10.926-10.926c1.15,0,2.257,0.178,3.299,0.507
	c2.021-4.994,6.919-8.521,12.635-8.521c5.43,0,10.123,3.184,12.311,7.786c0.539-0.082,1.092-0.124,1.654-0.124
	C310.509,167.346,315.405,172.241,315.405,178.27z M425.023,168.415l18.542-35.181c0.876-1.661,2.6-2.701,4.478-2.701
	s3.602,1.04,4.478,2.701l14.747,27.98l-5.693,13.225l-9.426-16.014l-7.676,13.037l-6.361-12.347L425.023,168.415z"></path>
    <path id="color_x5F_1" fill-rule="evenodd" clip-rule="evenodd" fill="#0984E3" d="M424.359,168.067L424.359,168.067
	c6.196-11.758,12.296-23.566,18.591-35.27c1.035-1.845,3.058-3.03,5.193-3.012c2.08,0.054,4.05,1.262,5.038,3.098l14.749,27.982l0,0
	l66.371,125.922l11.144,0.081l0.532,0.228l0.211,0.538l-40.345,90.65c0,0-0.006,0.044-0.047,0.105l-15.84,35.535v10.145
	c-0.13,0.651-0.462,0.692-0.462,0.692l-0.287,0.057H49.112c-0.651-0.13-0.692-0.462-0.692-0.462l-0.057-0.287v-10.505
	c0.13-0.652,0.462-0.692,0.462-0.692l0.024-0.005l35.262-37.798l-6.586-0.038c-0.771-0.043-0.722-0.48-0.899-0.762
	c-2.108-3.416-2.258-7.742,0.292-11.272c0,0,0.203-0.29,0.607-0.311c1.558,0,3.115-0.018,4.673-0.042
	c-0.022-9.764-0.422-19.597,0.305-29.041c0.965-12.516,4.251-24.825,9.627-36.216l0.155-0.325l6.181-12.919
	c0,0,0.054-0.308,0.675-0.425h4.657c0.581-2.642,1.103-5.326,2.492-7.596c1.583-2.586,4.004-4.61,6.795-5.804h-0.884
	c-0.409-0.064-0.676-0.292-0.749-0.749c0-4.305-0.154-8.617,1.189-12.592c2.963-8.774,11.602-15.23,21.145-15.379
	c61.007-0.565,122.019-0.272,183.027-0.056l23.974-44.243l0,0c4.958-9.148,9.835-18.341,14.873-27.445
	c0.863-1.498,2.529-2.436,4.283-2.421c1.706,0.043,3.332,1,4.156,2.49l30.115,55.575l30.143-57.43L424.359,168.067L424.359,168.067z
	 M488.459,414.374H49.861v8.944h438.598L488.459,414.374L488.459,414.374z M488.812,412.813l15.185-34.066H344.43
	c0.001,0.114,0.001,0.227,0.002,0.34c-0.024,1.275-1.56,1.906-2.572,2.163c-2.795,0.712-5.944,0.73-8.422-0.369
	c0,0-0.242,2.208-0.719,3.95c-0.256,0.935-0.577,1.849-0.953,2.742l21.63,0.023l0.545,0.235l0.203,0.558l-0.268,0.53l-5.296,4.433
	c-0.224,0.129-0.227,0.13-0.481,0.175h-20.105c-0.114,0.128-0.808,0.863-0.973,1.026c-2.222,2.195-4.941,3.846-7.881,4.892
	c-4.136,1.494-8.707,1.797-12.969,0.671c-0.453-0.12-2.141-0.682-2.534-0.84c-1.804-0.725-3.481-1.713-4.999-2.906
	c-4.754-3.672-8.052-9.289-8.584-15.478c0,0-1.349,0.469-2.45,0.617c-2.428,0.325-5.015,0.375-7.21-0.684
	c-0.749-0.362-1.359-1.004-1.355-2.022l-98.015-0.056c0.025,1.957-1.561,2.26-2.681,2.531c-2.767,0.669-5.855,0.692-8.31-0.397
	c0,0-0.203,1.87-0.569,3.372c-0.471,1.929-1.228,3.776-2.218,5.491c-1.019,1.837-2.299,3.527-3.816,4.99
	c-1.286,1.242-2.733,2.303-4.288,3.172c-1.873,1.101-3.907,1.924-6.034,2.401c-2.412,0.541-4.903,0.639-7.346,0.331
	c-1.98-0.212-3.928-0.695-5.775-1.463c-1.672-0.695-3.243-1.612-4.68-2.708c-1.147-0.846-2.215-1.807-3.181-2.878l-10.458-0.063
	l-0.541-0.231l-0.208-0.549l0.254-0.531l5.029-4.433c0.23-0.138,0.232-0.139,0.495-0.187h1.612c-0.084-0.194-0.163-0.39-0.24-0.586
	c-0.383-0.986-0.693-1.996-0.93-3.021c-0.147-0.616-0.264-1.24-0.352-1.868c-0.035-0.244-0.064-0.488-0.089-0.733
	c-0.014-0.131-0.028-0.261-0.039-0.392c0,0,0.001-0.001,0.002-0.002c-0.002-0.028-0.004-0.056-0.006-0.083
	c-0.09,0.02-0.249,0.068-0.516,0.163c-2.939,0.992-6.437,1.058-9.149-0.25c-0.745-0.36-1.36-0.986-1.355-2.022l-32.721-0.056
	l-31.961,34.066h437.859V412.813z M331.962,379.04c-0.008-0.026-0.078-2.327-0.266-3.418c-1.603-9.297-10.408-16.827-20.093-16.797
	c-9.25,0.088-17.929,7.18-19.738,16.299c-0.233,1.173-0.359,3.621-0.369,3.688c-0.016,3.09,0.681,6.188,2.004,8.99
	c1.822,3.691,4.771,6.838,8.338,8.899c3.643,1.991,7.905,2.871,12.044,2.48c3.231-0.372,6.38-1.511,9.114-3.315
	C328.38,392.113,331.873,385.637,331.962,379.04z M157.358,397.21c7.72-3.93,12.493-13.178,10.889-21.837
	c-1.671-9.014-9.993-16.33-19.524-16.543c-0.175-0.003-0.35-0.004-0.523-0.004c-9.251,0.088-17.923,7.144-19.739,16.299
	c-1.244,6.278,0.722,13.112,5.094,17.804C139.476,399.181,149.549,401.037,157.358,397.21z M256.593,393.527h-37.722l-0.54-0.231
	l-0.208-0.549l0.254-0.531l5.029-4.433l0.495-0.187h37.989c0.099,0.02,0.198,0.041,0.297,0.061l0.408,0.431l-0.035,0.593
	l-0.189,0.238l-5.297,4.433C256.849,393.481,256.847,393.482,256.593,393.527z M445.303,393.527h-37.721l-0.541-0.231l-0.208-0.549
	l0.254-0.531l5.029-4.433l0.495-0.187H450.6c0.099,0.02,0.198,0.041,0.297,0.061l0.408,0.431l-0.035,0.593l-0.189,0.238
	l-5.296,4.433C445.56,393.481,445.558,393.482,445.303,393.527z M129.067,389.095h-2.087l-3.329,2.934h7.273
	C130.23,391.1,129.609,390.118,129.067,389.095z M351.334,389.095H331c-0.524,1.024-1.128,2.007-1.806,2.934h18.633L351.334,389.095
	z M412.893,389.095l-3.329,2.934h35.467l3.506-2.934H412.893z M224.183,389.095l-3.329,2.934h35.467l3.506-2.934H224.183z
	 M311.593,371.3c4.972,0.093,9.039,5.963,6.701,10.811c-2.043,4.237-8.475,5.552-12.001,2.189c-2.332-2.224-2.99-6.011-1.513-8.892
	C306.068,372.894,308.648,371.281,311.593,371.3z M148.188,371.3c4.934,0.092,9.006,5.877,6.74,10.728
	c-1.984,4.248-8.405,5.656-11.973,2.334c-2.354-2.19-3.064-5.969-1.621-8.872C142.592,372.958,145.329,371.281,148.188,371.3z
	 M148.013,372.799c-3.967,0.074-7.215,4.714-5.401,8.596c1.591,3.407,6.736,4.534,9.595,1.872c1.889-1.758,2.457-4.783,1.3-7.108
	C152.499,374.131,150.328,372.784,148.013,372.799z M311.417,372.799c-3.969,0.074-7.215,4.713-5.401,8.596
	c1.591,3.406,6.736,4.534,9.596,1.872c1.906-1.774,2.464-4.837,1.266-7.174C315.856,374.098,313.682,372.784,311.417,372.799z
	 M342.929,378.552c-0.004-0.204-0.443-4.782-0.542-5.311c-2.102-10.912-10.353-20.294-20.812-23.772
	c-9.613-3.197-20.744-1.326-28.779,4.826c-6.115,4.681-10.385,11.678-11.772,19.288c-0.064,0.355-0.254,2.309-0.321,2.849
	c-0.062,0.494-0.163,1.561-0.167,2.645c-0.002,0.496,2.32,1.029,4.355,1.076c1.824,0.042,4.298,0.191,5.069-1.017
	c0.017-0.027,0.193-2.899,0.315-3.634c1.63-9.83,10.635-17.875,20.9-18.167c0.234-0.005,0.467-0.008,0.701-0.007
	c9.863,0.093,19.164,7.574,21.171,17.373c0.288,1.405,0.426,2.838,0.421,4.269c0.119,0.205,0.305,0.418,0.593,0.549
	c2.547,1.164,6.164,1.082,8.421-0.072C342.779,379.295,342.936,379.144,342.929,378.552z M179.527,378.816
	c-0.004-0.271-0.459-5.115-0.546-5.575c-2.101-10.912-10.353-20.294-20.812-23.772c-9.613-3.197-20.742-1.326-28.778,4.826
	c-6.4,4.898-10.78,12.334-11.946,20.355l-0.362,3.581l-0.002,0.003c0.029,0.241,0.052,0.527,0.051,0.842
	c-0.002,0.503,2.32,1.029,4.355,1.076c1.823,0.042,4.296,0.192,5.068-1.017c0.017-0.027,0.031-0.052,0.042-0.076
	c0.115-8.208,5.136-16.292,12.664-19.754c2.874-1.321,6.019-1.988,9.21-1.978c9.989,0.095,19.402,7.801,21.25,17.772
	c0.238,1.283,0.351,2.587,0.346,3.891c0.007,0.025,0.013,0.05,0.018,0.077c0.139,0.672,1.009,0.664,1.83,0.831
	c2.398,0.488,5.144,0.579,7.164-0.453C179.296,379.335,179.529,379.396,179.527,378.816z M535.095,288.29l3.243,6.153
	c0.163,0.463,0.153,0.849-0.355,1.026l-0.009,0.011l-0.069,0.014c-0.069,0.019-0.146,0.036-0.231,0.048H517.78
	c0.023,0.665-0.045,0.906-0.195,1.339c-0.482,1.399-1.88,2.405-3.38,2.449l-19.444,0.26v15.34c0.077,0.115,0.477,0.781,0.573,0.954
	c0.109,0.072,0.283,0.113,0.591,0.12c0.064-0.001,1.475,0.024,2.061,0.116c0.569,0.072,1.173,0.186,1.744,0.364
	c3.223,1.004,5.831,3.667,6.975,6.824c0.377,1.021,0.866,3.823,0.266,4.135c-0.011,0.014-0.017,0.022-0.017,0.022
	c-0.368,0.185-0.611,0.194-0.817,0.172c-0.597,0.031-14.92,0.091-21.227,0.119c-0.012,0.032,0.538,0.566,0.72,0.767
	c1.27,1.402,2,3.275,2.03,5.181c0,0,0.02,0.794-0.813,0.838c-4.509,0.148-26.896,0.191-33.543,0.222l-0.533-0.22
	c0,0-0.268-1.489,0.095-2.731c0.723-2.474,2.745-4.52,5.224-5.298c0,0,0.248-2.2,1.091-3.987c1.765-3.736,5.81-6.265,9.999-6.203
	c0.791,0.019,1.578,0.12,2.346,0.303l0.021,0.005l0.002-0.003c0.028-0.056,0.498-0.973,1.241-2.032
	c0.32-0.461,2.1-2.374,2.437-2.647c2.379-1.934,5.418-3.027,8.546-3.012c0.378,0.005,2.031,0.168,2.478,0.255l0.025-9.489
	l-20.962,0.28c-2.149-0.006-3.94-2.306-3.25-4.441H444.54c0.242,0.984-0.149,2.683-1.445,3.475l-1.776,1.056l8.584,17.63
	c0,0,0.75,2.392-0.443,3.869c-0.666,0.825-1.697,1.317-2.772,1.349l-24.697,0.33v8.099c0.14-0.016,0.28-0.03,0.419-0.043
	c5.951-0.486,11.963,2.789,14.749,8.094c4.861-0.53,9.891,2.161,12.173,6.485c0.901,1.708,1.386,3.623,1.411,5.56
	c0.005,0.349,0.105,0.618-0.602,0.894c-0.15,0.03-54.729,0.385-54.729,0.385l-0.533-0.22l-0.219-0.534
	c0.047-7.366,7.479-13.769,15.201-11.917c0,0,1.422-2.318,2.144-3.215l0.013-13.419v-0.037l-26.489,0.354
	c-2.306-0.007-4.137-2.625-3.074-4.871l9.241-18.724c0,0-2.465-1.194-2.732-1.433c-0.576-0.518-0.97-1.218-1.124-1.976h-34.561
	l13.278,20.83c0.319,0,1.047,0.044,1.274,0.077c3.024,0.446,5.328,2.966,6.121,6.028v0.001c0.898,3.522,1.624,7.083,2.133,10.688
	c0.002,0.014,0.004,0.029,0.006,0.044c0.011,0.081,0.023,0.162,0.034,0.244l0.024,0.071c0.988,7.328,1.078,14.775,0.219,22.118
	c-0.055,0.513-0.842,5.587-0.878,5.774c0,0,5.688,2.369,4.914,6.638c-0.406,2.245-2.206,3.946-4.094,5.451
	c-0.183,0.147-0.405,0.287-0.681,0.334h-16.117l-15.327,0.249c0.028,0.319,0.168,1.926,0.168,1.926l160.322,0.025l39.617-88.871
	L535.095,288.29z M279.256,375.292h-98.477l0.166,1.886l98.148,0.015C279.133,376.43,279.256,375.294,279.256,375.292z
	 M115.878,375.292l-17.268-0.225H86.16l-1.954,2.095l31.503,0.005C115.778,376.373,115.878,375.292,115.878,375.292z
	 M343.851,284.728c-0.085,0.171-0.285,0.313-0.708,0.387l-243.529,0.1c-3.232,6.753-6.706,13.408-9.325,20.314
	c-4.346,11.462-6.571,23.728-6.592,35.983v21.105c4.967-0.086,9.934-0.194,14.892,0.067l0.081,0.004
	c0.738,0.12,0.659,0.493,0.845,0.775l0.001,0.001c1.484,2.266,2.206,5.071,1.445,7.607c-0.032,0.106-1.218,2.723-1.218,2.723h16.316
	c1.849-11.339,10.137-21.387,20.923-25.383c10.006-3.707,21.817-2.102,30.478,4.16c6.833,4.941,11.628,12.572,13.092,20.941
	l0.047,0.282h98.865c0.036-0.217,0.074-0.432,0.113-0.648c2.082-11.152,10.336-20.923,20.981-24.798
	c9.981-3.633,21.689-2.01,30.306,4.223c6.834,4.941,11.628,12.562,13.092,20.941l0.046,0.271l14.132-0.23
	c-0.069-0.119-0.136-0.239-0.201-0.361c-1.625-3.068-1.365-6.801,0.713-9.843c0.173-0.253,0.219-0.563,0.858-0.665h14.444
	c0.526-2.694,1.223-8.784,1.248-9.104c-0.077-0.04-2.509-1.309-4.045-3.183c-3.917-4.78-2.426-12.951,3.416-16.009l0.007-0.004
	c-0.028-0.194-2.293-11.854-2.986-12.701c-1.21-1.478-2.884-2.602-4.818-2.623c0,0-0.838-0.022-0.979-0.106
	c-0.147-0.073-0.209-0.163-0.279-0.241l0,0l-14.233-22.328l0,0l-1.989-3.12L343.851,284.728z M375.425,364.182
	c0,0-0.801-0.01-0.859,0h-14.673c-1.428,2.073-2.038,4.811-1.138,7.207c0.278,0.739,0.76,1.585,1.1,2.141h15.513
	c2.197-1.735,4.75-4.12,3.085-6.729C377.739,365.682,376.591,364.878,375.425,364.182z M98.195,364.182H77.913
	c-1.4,2.047-1.949,4.662-1.131,7.01c0.28,0.803,0.67,1.56,1.117,2.282l20.266,0.056l0.022-0.037l0.019-0.032l0.003-0.007
	l0.006-0.009c0.942-1.607,1.737-3.375,1.574-5.223c-0.13-1.44-0.767-2.777-1.55-3.975l-0.006-0.008l-0.007-0.011l-0.012-0.019
	L98.195,364.182z M187.792,286.43c0.305,0.136,0.481,0.372,0.517,0.713v83.533c-0.087,0.831-1.393,0.998-1.498,0v-83.533
	C186.888,286.414,187.102,286.283,187.792,286.43z M277.22,286.43c0.304,0.136,0.481,0.372,0.517,0.713v83.533
	c-0.086,0.819-1.4,0.927-1.498,0v-83.533C276.316,286.414,276.529,286.283,277.22,286.43z M104.902,359.658h-9.624
	c-0.652-0.13-0.692-0.462-0.692-0.462l-0.057-0.287v-5.694c0.13-0.651,0.462-0.692,0.462-0.692l0.287-0.057h9.624
	c0.096,0.019,0.192,0.038,0.287,0.057l0.406,0.405l0.057,0.287v5.694c-0.129,0.651-0.462,0.692-0.462,0.692L104.902,359.658z
	 M96.027,353.964v4.196h8.126v-4.196H96.027z M374.801,335.971c-4.072,2.443-5.761,8.272-3.227,12.434
	c0.894,1.469,2.211,2.665,3.745,3.452C375.637,346.566,375.453,341.239,374.801,335.971z M420.924,333.039
	c-2.945,0.637-6.429,2.186-9.115,6.756c-0.415,0.707-0.854,1.708-0.854,1.708c-0.577,0.417-1.629-0.088-2.662-0.218
	c-5.715-0.721-11.605,3.799-12.104,9.861l-0.005,0.076c17.493-0.08,53.038-0.34,53.038-0.34c-0.009-0.127-0.02-0.254-0.032-0.381
	c-0.623-5.772-6.271-10.445-12.355-9.549l-0.591-0.169c0,0-1.297-2.457-2.843-4.013c-3.013-3.034-7.493-4.495-11.742-3.865
	C421.66,332.905,421.068,333.009,420.924,333.039z M355.322,345.729h-5.113c-0.652-0.13-0.692-0.462-0.692-0.462l-0.057-0.287
	v-3.603c0.129-0.651,0.462-0.692,0.462-0.692l0.287-0.057h5.113c0.096,0.019,0.191,0.038,0.287,0.057l0.406,0.405l0.057,0.287v3.603
	c-0.13,0.652-0.462,0.692-0.462,0.692L355.322,345.729z M350.959,342.126v2.104h3.615v-2.104H350.959z M268.623,336.918H254.6
	c-0.973-0.193-0.749-0.749-0.749-0.749v-4.72c0,0-0.224-0.556,0.749-0.749h14.023c0.096,0.019,0.192,0.038,0.287,0.057l0.406,0.405
	l0.057,0.287v4.72c-0.129,0.652-0.462,0.692-0.462,0.692L268.623,336.918z M298.771,336.918h-14.024
	c-0.972-0.193-0.749-0.749-0.749-0.749v-4.72c0,0-0.223-0.556,0.749-0.749h14.024c0.096,0.019,0.191,0.038,0.287,0.057
	c0.552,0.369,0.462,0.692,0.462,0.692v4.72C299.52,336.169,299.788,336.717,298.771,336.918z M255.349,332.198v3.222h12.525v-3.222
	H255.349z M285.496,332.198v3.222h12.526v-3.222H285.496z M420.492,323.274v-0.004l-6.977,0.093v11.87
	c1.925-1.778,4.349-3.034,6.935-3.625L420.492,323.274z M481.689,327.697c-0.52-0.125-1.691-0.35-2.843-0.185
	c0,0-0.574-0.016-0.909-0.674c-0.347-0.654-0.43-0.749-0.671-1.077c-3.274-4.439-11.415-4.272-13.988,1.657
	c0,0-0.17,0.411-0.683,0.451l-0.586-0.003c-0.982-0.173-1.986-0.26-2.957-0.057c0,0-0.47,0.119-0.651,0.178
	c-2.273,0.767-4.001,2.87-4.304,5.253l-0.003,0.02c10.668-0.05,21.35-0.053,31.974-0.201c0,0-0.122-1.084-0.415-1.769
	c-0.716-1.671-2.172-2.982-3.922-3.558L481.689,327.697z M484.807,310.5c-3.405-0.298-6.875,0.956-9.369,3.33
	c-1.132,1.085-2.056,2.386-2.677,3.84l-0.001,0.001c0,0-0.621,0.676-1.317,0.48c-2.004-0.541-4.118-0.308-5.995,0.505
	c-2.961,1.298-5.327,4.059-5.738,7.475c0.118,0,1.324,0.001,2.335,0.21c0,0,1.721-3.072,4.537-4.431
	c4.358-2.101,10.148-0.355,12.588,4.054c0.967-0.082,1.943,0.029,2.878,0.298l0.025,0.007c7.812-0.045,15.627-0.049,23.447-0.176
	l0.185-0.003c0-0.001-0.007-0.142-0.03-0.373c-0.055-0.556-0.205-1.637-0.58-2.544c-0.013-0.031-0.026-0.061-0.039-0.092
	c-1.604-3.663-5.73-5.996-9.717-5.514c-0.021,0.002-0.279,0.035-0.541-0.082c0,0-0.599-0.542-0.667-0.675
	C492.305,313.332,488.733,310.92,484.807,310.5z M308.155,320.77c-1.8,0.056-11.221,0.023-14.13-0.013
	c-1.854-0.069-3.463-1.664-3.532-3.532c-0.098-7.819-0.001-15.641-0.001-23.461c0.028-2.217,1.896-4.184,4.168-4.269
	c13.443-0.166,26.888-0.083,40.332,0c7.397,0.138,14.023,6.544,14.07,14.245v9.582c1.151,0.006,2.3,0.027,3.45,0.077l0,0
	c0,0,0.377-0.152,0.618,0.338c0.077,0.116,0.124,0.256,0.131,0.411v9.592c-0.007,0.177-0.071,0.337-0.173,0.463
	c-0.139,0.211-0.29,0.229-0.29,0.229l-0.044,0.009c-0.075,0.028-0.157,0.044-0.243,0.048c-0.266,0-0.531,0.001-0.798,0.001
	c-3.133,0.008-6.266,0.057-9.4-0.001l-0.071-0.002c-0.008,0-0.016,0-0.025,0c-2.273-0.081-4.394-1.586-5.203-3.729H321.01
	c0,0-6.524,4.569-6.652,4.57c0,0-0.874,0.27-1.295-0.501l-2.588-2.843l-0.006,0.006c-0.287,0.264-0.719,0.276-1.02,0.032
	C309.012,321.611,308.58,321.192,308.155,320.77z M314.207,323.6l9.872-6.785c0.485-0.305,0.392-0.126,0.877-0.192
	c0.83-0.122,1.649-0.314,2.428-0.627c0,0-1.359-0.393-0.507-1.588c0.124-0.179,0.243-0.361,0.351-0.548
	c0.401-0.694,0.82-1.476,0.233-2.088c-0.121-0.126-0.275-0.231-0.46-0.225c-0.02,0.002-0.039,0.004-0.058,0.007
	c-1.761,0.368-2.584,2.569-4.111,3.479c-0.311,0.185-5.983,3.581-7.85,4.702c0,0-0.566,0.233-0.94-0.139l-0.528-0.58
	c-0.648,0.647-1.308,1.283-1.966,1.921l2.414,2.653L314.207,323.6z M351.763,314.897h-9.745c-2.418,0.03-4.35,2.604-3.693,5.036
	c0.158,0.376,0.282,0.745,0.482,1.082c0.737,1.151,2.048,1.916,3.433,1.974l0.048,0.002l0.045,0.001h9.43L351.763,314.897
	L351.763,314.897z M442.776,295.248c-0.013-0.014-0.026-0.028-0.039-0.043l-11.317-17.166c-0.8-1.719,1.592-0.596,2.78-0.898
	c0.864-0.219,1.395-1.253,1.057-2.109c-5.868-13.418-11.944-26.747-18.294-39.942c-0.192-0.371-0.538-0.693-0.952-0.659
	c-0.631,0.052-0.889,0.785-1.197,1.452c-5.846,12.808-11.468,25.778-16.942,38.817c-0.568,1.437,1.196,3.142,2.656,2.331
	c0,0,0.24-0.291,0.729-0.104c0.391,0.149,0.692,0.442,0.343,1.135l-11.907,16.699c-2.705,2.973,3.328,4.34,3.328,4.34l0.394,0.43
	l-0.034,0.582c-3.202,6.488-6.51,12.926-9.605,19.465c-0.177,0.407-0.182,0.573-0.166,0.877c0.05,0.96,0.919,1.781,1.912,1.784
	l27.236-0.364h0.001c2.825-0.038,5.65-0.196,8.474-0.113l0,0c8.5-0.114,17.002-0.093,25.499-0.342
	c1.412-0.087,2.445-1.735,1.82-3.073l-8.88-18.238c-0.326-1.191,2.329-1.76,3.122-2.793
	C443.256,296.712,442.978,295.755,442.776,295.248z M122.841,291.931c2.654-0.415,5.508-0.187,8.409-0.052
	c15.792-0.093,31.585-0.144,47.374,0.054c2.179,0.081,4.084,1.931,4.167,4.167c0.087,7.042,0.089,14.087,0,21.128
	c-0.071,1.854-1.66,3.458-3.529,3.529c-22.272,0.28-44.549,0.276-66.82,0c-2.082-0.077-3.9-1.844-3.979-3.979
	c-0.045-3.594-0.023-7.188-0.001-10.782c0.14-7.328,6.482-13.919,14.063-14.063L122.841,291.931z M265.59,291.933
	c2.18,0.081,4.084,1.931,4.167,4.167c0.087,7.041,0.087,14.084,0,21.125c-0.069,1.85-1.664,3.462-3.532,3.532
	c-22.231,0.274-44.465,0.001-66.698,0.001c-2.108-0.026-3.993-1.778-4.076-3.976c-0.076-5.968-0.111-11.936,0.001-17.902
	c0.112-3.624,3.278-6.832,6.945-6.946C223.458,291.54,244.527,291.669,265.59,291.933z M163.89,293.331
	c-9.364-0.019-18.727,0.034-28.092,0.07c-0.129,0.686-0.446,1.508-0.738,2.24c-1.191,2.975-2.86,5.747-4.635,8.453
	c0.477,0.011,0.955,0.025,1.432,0.041c1.061,0.109,0.698,2.329,0.698,4.038c-0.013,0.388-0.305,0.706-0.698,0.747
	c-0.351,0.012-0.7,0.021-1.051,0.028c2.188,3.29,4.396,6.635,5.056,10.5c9.336,0.035,18.67,0.021,28.005-0.041
	c0.085-0.669,0.348-1.483,0.614-2.189c1.103-2.923,2.717-5.641,4.431-8.292c-0.411-0.003-0.823-0.004-1.236-0.004
	c-1.09-0.038-0.749-2.31-0.749-4.04c0.014-0.392,0.312-0.707,0.698-0.747c0.542-0.018,1.085-0.034,1.627-0.046
	C166.979,300.714,164.683,297.259,163.89,293.331z M247.93,293.316c-9.783-0.014-19.566,0.038-29.349,0.076
	c-0.028,0.106-0.061,0.211-0.096,0.314c-1.239,3.541-2.609,7.044-4.296,10.381c0.57,0.013,1.141,0.029,1.711,0.048
	c1.061,0.109,0.698,2.329,0.698,4.038c-0.014,0.392-0.312,0.707-0.698,0.747c-0.351,0.012-0.7,0.021-1.051,0.028
	c2.186,3.287,4.391,6.627,5.054,10.487c9.335,0.045,18.67,0.04,28.005-0.012c0.082-0.672,0.348-1.493,0.616-2.205
	c1.103-2.923,2.717-5.641,4.431-8.292c-0.411-0.003-0.824-0.004-1.235-0.004c-1.09-0.038-0.749-2.31-0.749-4.04
	c0.014-0.388,0.305-0.706,0.698-0.747c0.542-0.018,1.085-0.034,1.627-0.046C251.018,300.71,248.721,297.251,247.93,293.316z
	 M118.773,294.124c-4.89,1.716-8.708,6.419-8.812,11.891c-0.022,3.575-0.044,7.15,0,10.726c0.05,1.322,1.187,2.469,2.519,2.518
	c2.028,0.025,4.055,0.048,6.084,0.069c0.094-0.653,0.348-1.431,0.603-2.109c1.103-2.924,2.717-5.641,4.431-8.292
	c-0.381-0.003-0.761-0.004-1.142-0.004c-1.097-0.038-0.749-2.307-0.749-4.04c0.013-0.392,0.312-0.707,0.698-0.747
	c0.533-0.018,1.067-0.033,1.6-0.045c-2.009-3.19-3.886-6.463-5.2-9.911C118.805,294.179,118.791,294.159,118.773,294.124z
	 M204.637,293.429c-0.687,0.001-1.374,0.001-2.061,0.001c-2.929,0.018-5.572,2.589-5.628,5.556
	c-0.037,5.919-0.075,11.839,0.001,17.757c0.05,1.321,1.185,2.464,2.515,2.515c1.049,0.013,2.097,0.026,3.146,0.038
	c0.098-0.647,0.348-1.411,0.599-2.078c1.102-2.924,2.717-5.641,4.431-8.292c-0.381-0.003-0.761-0.004-1.142-0.004
	c-1.097-0.038-0.749-2.307-0.749-4.04c0.013-0.388,0.304-0.706,0.697-0.747c0.665-0.023,1.329-0.041,1.994-0.054
	C206.98,300.618,205.834,297.013,204.637,293.429z M170.689,308.944c-2.134,3.272-4.351,6.652-5.282,10.299l-0.004,0.016
	c4.188,0,8.375,0.042,12.562-0.001c0.65-0.02,1.532-0.4,1.532-0.4c-0.959-3.341-2.907-6.381-4.822-9.367l-0.341-0.525
	C173.119,308.971,171.904,308.957,170.689,308.944z M254.731,308.944c-2.133,3.272-4.35,6.652-5.281,10.299l-0.004,0.016
	c4.188,0,8.375,0.042,12.562-0.001c0.65-0.02,1.532-0.4,1.532-0.4c-0.959-3.341-2.907-6.381-4.822-9.367l-0.341-0.525
	C257.162,308.971,255.946,308.957,254.731,308.944z M265.553,293.431c-0.246-0.003-0.534,0.42-0.586,0.639
	c-0.05,0.168-0.05,0.168-0.102,0.335c-1.126,3.458-3.05,6.617-5.08,9.691c0.445,0.011,0.891,0.024,1.337,0.039
	c1.055,0.109,0.697,2.329,0.697,4.038c-0.013,0.388-0.304,0.706-0.697,0.747c-0.325,0.011-0.649,0.02-0.974,0.027
	c2.011,3.132,4.046,6.3,4.945,9.919c0.035,0.141,0.034,0.277,0.003,0.406c0.364-0.005,0.728-0.009,1.092-0.014
	c1.089-0.04,2.031-0.975,2.071-2.07c0.086-7.016,0.086-14.035-0.001-21.051C268.205,294.715,266.983,293.484,265.553,293.431z
	 M125.374,308.943c-2.134,3.272-4.351,6.652-5.282,10.301l14.197,0.016c-0.88-3.708-3.129-7.012-5.27-10.291
	C127.805,308.971,126.59,308.956,125.374,308.943z M326.066,317.948c-0.413,0.086-0.829,0.152-1.246,0.204l-1.619,1.108h3.273
	c-0.402-0.229-0.672-0.518-0.538-0.97C325.979,318.175,326.023,318.061,326.066,317.948z M332.877,316.093
	c-0.256,0.571-0.511,1.143-0.769,1.714c-0.29,0.6-0.744,1.095-1.288,1.453h5.895c-0.06-0.5-0.049-1.013,0.044-1.523
	C335.454,317.213,334.168,316.645,332.877,316.093z M308.517,312.65c-1.558,0.254-2.814,1.424-3.131,3.019l-0.001,0.003v0.002
	c-0.004,0.018-0.007,0.036-0.011,0.054l3.458,3.532l1.144,1.074l1.121-1.074l2.004-1.987L308.517,312.65z M304.565,309.766
	c-0.003,0.002-0.03,0.02-0.046,0.034c-2.293,2.176-2.864,5.7-3.472,9.182L301,319.26h5.662c-0.871-0.895-2.653-2.726-2.667-2.744
	c-0.703-0.853-0.116-2.404,1.01-3.606c0.531-0.588,1.181-1.086,1.856-1.359c0.064-0.026,0.407-0.147,0.407-0.147
	C306.432,310.702,305.577,309.938,304.565,309.766z M347.565,313.323c0.002-3.246,0.018-6.493-0.002-9.74
	c-0.122-6.576-5.736-12.463-12.59-12.59c-13.425-0.083-26.851-0.166-40.276,0c-1.421,0.053-2.653,1.274-2.706,2.706
	c-0.099,7.829-0.099,15.66,0,23.489c0.041,1.106,1.008,2.057,2.127,2.071h5.284c0.089-1.085,0.531-2.585,0.844-3.899
	c0.587-2.469,1.448-5.032,3.236-6.646l0.41-2.431c-0.057-0.043-1.492-0.703-2.107-1.103c-1.682-1.093-1.91-3.648-1.7-5.642
	c0.315-2.989,2.163-5.7,5.342-6.646c1.221-0.363,2.486-0.561,3.768-0.553c3.577,0.066,9.274,1.974,6.561,7.644
	c-0.061,0.128-0.185,0.21-0.284,0.303c0.346,2.953,0.51,6.156-2.016,8.048c-1.025,0.767-2.318,1.133-3.61,1.302
	c0,0-0.453,1.653-0.505,1.717c1.841,1.739,3.565,3.599,5.349,5.397c0.264,0.287,0.276,0.72,0.031,1.021
	c-0.053,0.057-0.107,0.114-0.161,0.171l0.174,0.191c2.557-1.534,5.11-3.097,7.675-4.593l3.654-3.209
	c0.369-0.294,0.612-0.284,0.989-0.284c0.813,0.022,1.491,0.543,1.859,1.269c0.663-1.5,1.35-2.989,2.025-4.484
	c0.434-0.901,1.238-1.473,2.351-1.466c1.788,0.056,3.427,1.724,2.779,3.377c-0.54,1.28-1.088,2.558-1.642,3.833
	c1.494,0.592,2.974,1.219,4.441,1.878c0.866-0.629,1.918-1.014,3.015-1.055C343.775,313.376,345.669,313.334,347.565,313.323z
	 M209.417,308.943c-2.134,3.272-4.351,6.652-5.282,10.301l14.196,0.016c-0.879-3.708-3.129-7.012-5.269-10.291
	C211.847,308.971,210.633,308.956,209.417,308.943z M330.749,317.172c0.333-0.735,3.433-7.627,3.942-9.029
	c0.236-0.704-0.923-1.288-1.483-1.278c-0.489,0.021-0.927,0.629-0.927,0.629l-3.323,7.609c0.183,0.16,0.314,0.376,0.371,0.608
	c0.043,0.152,0.051,0.315,0.011,0.481c-0.105,0.452-0.46,0.752-0.91,0.983c-0.115,0.06-0.411,0.186-0.467,0.208l-0.333,0.763
	C328.802,318.658,330.208,318.296,330.749,317.172z M180.753,294.616c-1.135,3.376-3.022,6.468-5.011,9.48
	c0.445,0.011,0.892,0.024,1.337,0.039c1.061,0.109,0.698,2.329,0.698,4.038c-0.014,0.392-0.312,0.707-0.698,0.747
	c-0.323,0.011-0.644,0.02-0.966,0.026c1.936,2.963,3.807,6.014,4.789,9.377c0.232-0.328,0.376-0.718,0.391-1.132
	c0.089-7.017,0.087-14.037,0-21.054C181.272,295.581,181.074,295.054,180.753,294.616z M333.485,314.72l3.765,1.582
	c0.041-0.08,0.435-0.706,0.435-0.706c-2.333-0.981-3.837-1.701-3.87-1.626C333.706,314.22,333.596,314.471,333.485,314.72z
	 M493.263,299.61l-5.49,0.073v9.907c2.081,0.67,3.968,1.884,5.49,3.461V299.61z M307.279,300.745
	c-0.007,0.011-0.392,1.502-0.577,1.757c-0.254,0.404-0.621,0.651-1.151,0.333c-0.267-0.162-0.526-0.106-0.727,0.059
	c-0.224,0.205-0.396,0.546-0.381,0.907c0.042,0.671,0.76,1.427,0.767,1.438c0.003,0.003,0.005,0.005,0.005,0.005
	c0.23,0.369,0.332,0.081,0.24,0.785l-0.389,2.299c1.129,0.232,2.145,0.929,3.071,1.787l0.04,0.017l0.341-1.366
	c0.393-1.365,3.388-0.327,4.828-2.452c1.025-1.512,0.827-3.48,0.68-5.196c-1.046,0.329-2.244,0.285-3.365,0.16
	C309.55,301.194,307.279,300.745,307.279,300.745z M254.732,305.631h-2.263v1.793h1.877c1.468-0.001,2.937-0.075,4.403,0h1.573
	v-1.793h-1.96l0,0H254.732L254.732,305.631z M170.689,305.631h-2.263v1.793h1.877c1.468-0.001,2.937-0.075,4.403,0h1.574v-1.793
	h-1.961l0,0H170.689L170.689,305.631z M209.61,305.631h-2.362v1.793h1.783c1.467-0.001,2.937-0.075,4.403,0h1.667v-1.793h-2.169l0,0
	H209.61L209.61,305.631z M129.39,307.424h1.667v-1.793h-7.852v1.793h1.816C126.478,307.422,127.936,307.349,129.39,307.424z
	 M314.06,299.393c0.422-0.231,0.745-0.68,0.729-1.243c0,0,0.073-0.408,0.05-0.748c-0.148-2.115-2.553-3.148-4.292-3.443
	c-0.532-0.091-1.071-0.125-1.611-0.121c-2.095,0.041-4.316,0.552-5.623,1.831c-1.999,1.955-2.373,5.323-1.383,7.641
	c0.156,0.34,0.62,0.601,1.045,0.838c-0.034-0.21-0.039-0.424-0.021-0.638c0.057-0.652,0.386-1.27,0.867-1.701
	c0.452-0.438,1.066-0.681,1.782-0.57c0,0,0.353-1.593,0.355-1.598c0.104-0.344,0.299-0.564,0.782-0.542c0,0,2.38,0.482,3.384,0.592
	c0.022,0.003,0.797,0.074,1.087,0.086c0.238,0.01,1.114-0.011,1.313-0.029C312.669,299.734,313.857,299.481,314.06,299.393z
	 M263.432,293.59c-0.663-0.375-13.929-0.16-13.929-0.16c0.03,0.113,0.031,0.113,0.063,0.225c1.094,3.651,3.239,6.941,5.367,10.179
	l0.151,0.228c0.974-0.01,1.949-0.009,2.922,0.003C260.044,300.994,263.797,293.807,263.432,293.59z M176.95,293.43h-11.489
	c0.03,0.113,0.031,0.113,0.063,0.225c1.095,3.651,3.239,6.941,5.367,10.179l0.151,0.228c0.974-0.01,1.949-0.009,2.922,0.003
	c2.038-3.07,4.027-6.207,5.271-9.641c0,0,0.255-0.195-0.11-0.411C178.462,293.637,177.712,293.439,176.95,293.43z M128.827,293.423
	c-1.678,0.004-3.356,0.006-5.034,0.007c-1.168,0.074-2.323,0.262-3.395,0.711c1.355,3.326,3.185,6.433,5.089,9.485l0.275,0.434
	c0.963-0.009,1.926-0.009,2.888,0.002c2.225-3.356,4.501-6.815,5.566-10.574c0,0-1.806-0.032-3.389-0.041
	C130.16,293.443,129.493,293.433,128.827,293.423z M216.994,293.43h-10.776c1.199,3.567,2.338,7.16,3.833,10.606l0.487,0.02
	c0.659-0.003,1.319-0.002,1.98,0.005c1.757-3.36,3.143-6.885,4.413-10.451L216.994,293.43z M516.171,294.964
	c-0.068-0.117-0.102-0.205-0.102-0.205l-6.977-14.328c-0.345-1.096,1.63-1.41,2.329-2.32c0.418-0.544,0.443-1.337,0.067-1.926
	l-9.192-13.941c-0.46-0.989,0.111-1.281,1.072-1.087c1.116,0.207,2.197-1.01,1.756-2.125c-4.73-10.826-9.635-21.578-14.759-32.224
	c-0.21-0.405-0.896-0.65-1.233,0c-2.414,5.016-4.518,10.113-6.724,15.184c-2.527,5.809-5.035,11.627-7.537,17.447
	c-0.453,1.08,0.873,2.471,2.038,1.761c0,0,0.355-0.18,0.652-0.073c0.398,0.141,0.711,0.438,0.36,1.14
	c-3.177,4.455-6.414,8.867-9.528,13.365c-0.674,1.034-0.255,2.556,0.876,3.093l1.524,0.698c0.379,0.239,0.509,0.569,0.36,1.013
	l-7.248,14.688c-0.052,0.076-0.111,0.143-0.178,0.2c-0.215,0.488-0.455,1.253-0.229,1.901c0.26,0.741,1.007,1.257,1.808,1.259
	l21.709-0.29l0,0c2.329-0.031,4.66-0.166,6.988-0.093l0,0c6.749-0.09,13.5-0.074,20.245-0.272c1.324-0.081,2.338-1.51,1.928-2.812
	C516.175,295.018,516.172,294.998,516.171,294.964z M363.146,191.328l-5.556,9.165c-0.19,0.208-0.454,0.291-0.703,0.251
	c-0.111-0.011-0.485-0.276-0.542-0.369l-3.532-6.668l-1.163-2.194l-9.629,6.655l-23.505,43.378
	c1.783,0.006,12.127-0.033,15.468,0.063c7.223,0.252,14.243,3.369,19.231,8.538c0.109,0.113,0.49,0.521,0.573,0.612
	c4.453,4.898,7.052,11.395,7.254,18.055c0.006,0.206-0.036,0.969-0.187,1.167c-0.116,0.158-0.292,0.307-0.549,0.336H332.74
	c0.16,0.062,0.318,0.126,0.476,0.191c2.025,0.854,3.842,2.084,5.405,3.597c1.795,1.676,3.263,3.712,4.248,6.013l7.687,12.344
	l1.768,2.774h5.287l21.226-40.441l14.539-27.699l-18.069-33.345l-3.937,8.895c-0.017,0.033-0.036,0.065-0.057,0.094
	c-0.381,0.592-0.779,0.577-1.2,0.078c-0.024-0.027-0.048-0.055-0.069-0.086l-0.001-0.001l-6.569-10.858L363.146,191.328z
	 M460.928,174.819l-8.779-14.917c0,0-7.137,12.138-7.364,12.242c-0.252,0.115-0.519,0.081-0.754-0.102
	c-0.081-0.052-6.189-11.816-6.189-11.816l-12.239,8.695l-30.714,58.515l0,0l-14.724,28.054l-20.79,39.607l28.618-0.001
	c0.128-0.392,11.272-16.341,11.272-16.341c-0.082-0.008-0.163-0.02-0.244-0.033c-2.004-0.372-3.29-2.686-2.537-4.588
	c5.468-13.024,11.1-26.021,16.968-38.876c0.747-1.627,2.441-3.162,4.118-1.773c0.31,0.257,0.547,0.578,0.732,0.934
	c6.35,13.196,12.198,26.629,18.296,39.943c0.84,1.922-0.65,4.42-2.96,4.32l10.128,15.361h19l6.701-13.579l-0.832-0.382
	c-0.36-0.171-0.372-0.192-0.517-0.292c-1.571-1.066-2.036-3.456-0.915-5.073l8.452-11.853c-0.072-0.013-0.142-0.029-0.213-0.046
	c-1.611-0.43-2.594-2.337-1.971-3.915c4.605-10.969,9.323-21.921,14.287-32.695c0.691-1.435,1.166-1.309,1.828-1.364
	c0.881-0.073,1.704,0.492,2.12,1.294c5.124,10.646,9.841,21.484,14.761,32.226c0.739,1.692-0.275,3.817-2.128,4.254
	c2.816,4.272,5.687,8.508,8.447,12.815c0.875,1.442,0.393,3.489-1.062,4.379l-0.982,0.583l6.645,13.647h19.047L467.336,162.95
	l-5.074,11.786h-0.001c-0.023,0.045-0.05,0.087-0.08,0.126c-0.402,0.591-0.749,0.537-1.156,0.075
	C460.991,174.901,460.958,174.863,460.928,174.819z M338.854,276.426c-3.048-3.568-7.637-5.738-12.41-5.806
	c-69.219-0.325-138.44-0.001-207.659-0.001c-5.939,0.032-11.504,4.399-12.841,10.323l-0.588,2.674h237.787
	c0,0-1.409-2.367-1.578-2.743l-0.004-0.01l-0.006-0.014c-0.391-0.869-2.532-4.228-2.688-4.411l-0.002-0.002L338.854,276.426z
	 M317.147,243.082c-61.114-0.08-122.229-0.555-183.341,0.012c-10.929,0.17-20.819,9.718-20.855,21.116v4.607h246.594
	c-0.014-0.507-0.044-1.014-0.089-1.519c-0.41-4.601-2.048-9.076-4.67-12.866c-0.993-1.434-3.677-4.256-3.825-4.391
	c-4.782-4.376-11.165-6.887-17.717-6.948c-0.054-0.001-16.013-0.001-16.013-0.001C317.202,243.089,317.174,243.087,317.147,243.082z
	 M178.667,196.54c-20.053,0.126-66.821,0.356-66.821,0.356c-0.821-0.077-0.763-0.5-0.745-1.301
	c0.258-9.03,6.764-17.506,15.433-20.03c2.146-0.624,4.389-0.906,6.623-0.841c1.712,0.05,3.415,0.312,5.068,0.759l0.116,0.032
	c0.707-1.637,2.18-4.287,3.984-6.443c4.909-5.869,12.432-9.416,20.105-9.526c0.254-0.001,0.254-0.001,0.507,0
	c9.708,0.133,18.953,5.829,23.428,14.541l0.066,0.131c1.228-0.158,3.166-0.241,4.98-0.049c4.575,0.486,8.942,2.484,12.322,5.632
	c1.907-0.759,3.951-1.181,6.013-1.211c0.16-0.001,0.16-0.001,0.321,0c6.077,0.084,11.856,3.578,14.728,9.052
	c0,0,3.043-0.223,5.568,0.563c5.465,1.702,9.512,7.129,9.55,12.976c0,0-0.149,0.73-0.894,0.764c-0.3,0.01-0.598,0.016-0.897,0.022
	c-0.521,0.009-1.042,0.016-1.562,0.023c-16.157,0.187-58.345,0.345-58.345,0.345c-0.864-0.229-0.625-0.753-0.616-1.088
	C177.641,199.604,178.02,198.014,178.667,196.54z M195.755,189.638c-0.002,0.009-0.159,0.637-1.354,0.302
	c-6.886-1.863-14.759,3.386-15.282,10.882l-0.002,0.024c19.491-0.09,59.279-0.382,59.279-0.382
	c-0.371-6.469-6.905-12.264-13.905-11.232c0,0-0.577-0.012-0.963-0.779c-2.542-4.948-7.809-8.286-13.474-8.364
	c-0.147-0.001-0.146-0.001-0.293,0c-5.695,0.083-11.13,3.564-13.633,8.716C195.995,189.078,195.87,189.356,195.755,189.638z
	 M374.405,192.085c-3.891-7.181-7.596-14.467-11.676-21.543c-0.603-1.006-1.747-1.622-2.925-1.612
	c-1.175,0.029-2.299,0.685-2.868,1.712l-13.339,24.615l0.022-0.014l7.871-5.44c0.017-0.009,0.894-0.772,1.088,0.266l1.557,2.938
	l2.913,5.5l0.003-0.004l5.452-9.009c0,0,0.628-1.145,1.282,0l0,0l6.795,11.229L374.405,192.085z M198.603,182.99
	c1.067-0.972,2.257-1.81,3.535-2.49l0.085-0.044c-0.967-0.846-2.018-1.597-3.13-2.24c-3.886-2.25-8.549-3.094-12.986-2.441
	c0,0-0.678-0.207-0.977-0.814c-0.099-0.196-0.099-0.195-0.199-0.391c-4.294-8.18-13.339-13.57-22.487-13.527
	c-9.845,0.142-19.211,6.474-22.98,15.666c0,0-0.201,0.633-1.456,0.269c-9.337-2.622-20.118,2.448-23.895,11.525
	c-0.906,2.176-1.408,4.514-1.506,6.874v0.018c22.225-0.103,44.45-0.216,66.675-0.357c2.848-5.202,9.323-8.053,15.153-6.638
	c0.039,0.01,0.077,0.019,0.116,0.029c0,0,0.419-0.819,1.08-1.852C195.89,186.154,198.125,183.423,198.603,182.99z M290.648,158.935
	c5.136,0.071,10.053,3.049,12.512,7.541l0.098,0.184c6.473-0.644,12.852,4.734,12.896,11.609c0,0,0.289,0.759-2.963,0.8
	c-15.768,0.199-31.539,0.218-47.308,0.293l-2.223,0.011c-0.342-0.026-0.352-0.076-0.444-0.144c-0.476-0.346-0.317-1.124-0.249-1.798
	c0.663-6.521,7.545-11.725,14.292-10.174c0,0,0.034,0.371,0.363-0.303C280.028,162.136,285.193,158.91,290.648,158.935z
	 M290.387,160.433c-5.017,0.073-9.81,3.29-11.769,7.942c0,0-0.237,0.743-1.332,0.435c-5.752-1.556-12.334,2.741-12.852,9.028
	l-0.002,0.031c16.673-0.077,33.326-0.038,50.061-0.319l0.137-0.003c-0.385-5.528-5.898-10.192-11.696-9.338
	c0,0-0.457,0.206-0.986-0.823C299.747,163.194,295.201,160.41,290.387,160.433z M461.47,172.786l4.968-11.54
	c-4.872-9.243-9.667-18.526-14.616-27.728c-0.768-1.368-2.268-2.248-3.854-2.235c-1.542,0.04-3.005,0.936-3.741,2.304
	l-17.076,32.398l0.032-0.023l10.495-7.457c0.015-0.007,0.835-0.529,1.1,0.268l0,0l5.74,11.139l6.986-11.867
	c0,0,0.225-0.188,0.513-0.26c0.258-0.07,0.56-0.055,0.778,0.26L461.47,172.786z"></path>
</svg>
